<svg xmlns="http://www.w3.org/2000/svg" height="100" viewBox="-112 -160 1121 1320"><defs><linearGradient id="foldit-a" x1="87" x2="112.002" y1="43" y2="670.04" gradientUnits="userSpaceOnUse" spreadMethod="pad"><stop offset="0" stop-color="rgb(64 64 64 / 1)"/><stop offset="1" stop-color="rgb(191 191 191 / 1)"/></linearGradient><linearGradient id="foldit-b" x1="299" x2="147" y1="343" y2="319" gradientUnits="userSpaceOnUse" spreadMethod="pad"><stop offset="0" stop-color="rgb(64 64 64 / 1)"/><stop offset="1" stop-color="rgb(191 191 191 / 1)"/></linearGradient><linearGradient id="foldit-c" x1="358" x2="359" y1="581" y2="17" gradientUnits="userSpaceOnUse" spreadMethod="pad"><stop offset="0" stop-color="rgb(64 64 64 / 1)"/><stop offset="1" stop-color="rgb(191 191 191 / 1)"/></linearGradient><linearGradient id="foldit-d" x1="157" x2="374.927" y1="664" y2="648.005" gradientUnits="userSpaceOnUse" spreadMethod="pad"><stop offset="0" stop-color="rgb(64 64 64 / 1)"/><stop offset="1" stop-color="rgb(191 191 191 / 1)"/></linearGradient><linearGradient id="foldit-e" x1="146" x2="313" y1="467" y2="467" gradientUnits="userSpaceOnUse" spreadMethod="pad"><stop offset="0" stop-color="rgb(64 64 64 / 1)"/><stop offset="1" stop-color="rgb(191 191 191 / 1)"/></linearGradient><linearGradient id="foldit-f" x1="69" x2="234.046" y1="59" y2="50.949" gradientUnits="userSpaceOnUse" spreadMethod="pad"><stop offset="0" stop-color="rgb(191 191 191 / 1)"/><stop offset="1" stop-color="rgb(64 64 64 / 1)"/></linearGradient><linearGradient id="foldit-g" x1="110" x2="114.011" y1="95" y2="474" gradientUnits="userSpaceOnUse" spreadMethod="pad"><stop offset="0" stop-color="rgb(64 64 64 / 1)"/><stop offset="1" stop-color="rgb(191 191 191 / 1)"/></linearGradient><linearGradient id="foldit-h" x1="295" x2="293" y1="379" y2="51.006" gradientUnits="userSpaceOnUse" spreadMethod="pad"><stop offset="0" stop-color="rgb(64 64 64 / 1)"/><stop offset="1" stop-color="rgb(191 191 191 / 1)"/></linearGradient></defs><path fill="url(#foldit-a)" d="M48 0v634l87 74h1V0Z" transform="matrix(1 0 0 -1 0 1000)"/><path fill="url(#foldit-b)" d="M136 303v85h183v-85Z" transform="matrix(1 0 0 -1 0 1000)"/><path fill="url(#foldit-c)" d="M319 0v623h88V0Z" transform="matrix(1 0 0 -1 0 1000)"/><path fill="url(#foldit-d)" d="M136 623v85h198l73-84v-1Z" transform="matrix(1 0 0 -1 0 1000)"/><path fill="url(#foldit-e)" d="M131 423v85h169l46-84v-1Z" transform="matrix(1 0 0 -1 455 1000)"/><path fill="url(#foldit-f)" d="M89 0 43 84v1h215V0Z" transform="matrix(1 0 0 -1 455 1000)"/><path fill="url(#foldit-g)" d="M43 85v377l87 46h1V85Z" transform="matrix(1 0 0 -1 455 1000)"/><path fill="url(#foldit-h)" d="M258 0v423h88V0Z" transform="matrix(1 0 0 -1 455 1000)"/></svg>