<svg xmlns="http://www.w3.org/2000/svg" height="100" viewBox="-145 -160 1222 1320"><defs><linearGradient id="blaka-ink-a" x1="1" x2="204.193" y1="95" y2="510.395" gradientUnits="userSpaceOnUse" spreadMethod="pad"><stop offset="0" stop-color="rgb(177 161 99 / 1)"/><stop offset="1" stop-color="rgb(63 46 17 / 1)"/></linearGradient><linearGradient id="blaka-ink-b" x1="-59" x2="447" y1="143" y2="440" gradientUnits="userSpaceOnUse" spreadMethod="pad"><stop offset="0" stop-color="rgb(177 161 99 / 1)"/><stop offset="1" stop-color="rgb(63 46 17 / 1)"/></linearGradient><linearGradient id="blaka-ink-c" x1="8" x2="89.073" y1="92" y2="381.26" gradientUnits="userSpaceOnUse" spreadMethod="pad"><stop offset="0" stop-color="rgb(177 161 99 / 1)"/><stop offset="1" stop-color="rgb(63 46 17 / 1)"/></linearGradient><linearGradient id="blaka-ink-d" x1="-10" x2="225.889" y1="36" y2="119.314" gradientUnits="userSpaceOnUse" spreadMethod="pad"><stop offset="0" stop-color="rgb(177 161 99 / 1)"/><stop offset="1" stop-color="rgb(63 46 17 / 1)"/></linearGradient><linearGradient id="blaka-ink-e" x1="205" x2="286.073" y1="92" y2="381.26" gradientUnits="userSpaceOnUse" spreadMethod="pad"><stop offset="0" stop-color="rgb(177 161 99 / 1)"/><stop offset="1" stop-color="rgb(63 46 17 / 1)"/></linearGradient><linearGradient id="blaka-ink-f" x1="62" x2="404.721" y1="99" y2="312.449" gradientUnits="userSpaceOnUse" spreadMethod="pad"><stop offset="0" stop-color="rgb(177 161 99 / 1)"/><stop offset="1" stop-color="rgb(63 46 17 / 1)"/></linearGradient></defs><path fill="url(#blaka-ink-a)" d="M271 86v440h151V86ZM46 86v414h151V86Z" transform="matrix(1 0 0 -1 0 1000)"/><path fill="url(#blaka-ink-b)" d="M415 421 25 528l40 146 390-107ZM251 252 66 303l28 104 185-51ZM191 1 15 49l39 146 176-48Zm225 0L240 49l39 146 176-48Z" transform="matrix(1 0 0 -1 0 1000)"/><path fill="url(#blaka-ink-c)" d="M26 86v306h151V86Z" transform="matrix(1 0 0 -1 470 1000)"/><path fill="url(#blaka-ink-d)" d="M206-3 15 49l39 146 191-52Z" transform="matrix(1 0 0 -1 470 1000)"/><path fill="url(#blaka-ink-e)" d="M223 86v306h151V86Z" transform="matrix(1 0 0 -1 470 1000)"/><path fill="url(#blaka-ink-f)" d="M394 285 98 364l37 146 297-78ZM387-3 196 49l39 146 191-52Z" transform="matrix(1 0 0 -1 470 1000)"/></svg>