<svg xmlns="http://www.w3.org/2000/svg" height="100" viewBox="-106 -160 1726 1320"><defs><linearGradient id="bungee-spice-a" x1="0" x2="0" y1="0" y2="900" gradientUnits="userSpaceOnUse" spreadMethod="reflect"><stop offset="0" stop-color="rgb(201 9 0 / 1)"/><stop offset="1" stop-color="rgb(255 215 0 / 1)"/></linearGradient><linearGradient id="bungee-spice-b" x1="0" x2="0" y1="0" y2="900" gradientUnits="userSpaceOnUse" spreadMethod="reflect"><stop offset="0" stop-color="rgb(255 215 0 / 1)"/><stop offset="1" stop-color="rgb(201 9 0 / 1)"/></linearGradient><linearGradient id="bungee-spice-c" x1="0" x2="0" y1="0" y2="900" gradientUnits="userSpaceOnUse" spreadMethod="reflect"><stop offset="0" stop-color="rgb(201 9 0 / 1)"/><stop offset="1" stop-color="rgb(255 215 0 / 1)"/></linearGradient><linearGradient id="bungee-spice-d" x1="0" x2="0" y1="0" y2="900" gradientUnits="userSpaceOnUse" spreadMethod="reflect"><stop offset="0" stop-color="rgb(255 215 0 / 1)"/><stop offset="1" stop-color="rgb(201 9 0 / 1)"/></linearGradient></defs><path fill="url(#bungee-spice-a)" d="M273 36q0-36-36-36H90Q54 0 54 36v264q0 30 9.5 69T93 460l87 227q11 33 51 33h269q39 0 50-33l87-227q20-52 29.5-91t9.5-69V36q0-36-36-36H489q-39 0-39 36v140H273Zm57 474-47-152h157l-47 152q-7 17-19 17h-25q-12 0-19-17" transform="matrix(1 0 0 -1 0 1000)"/><path fill="url(#bungee-spice-b)" d="M570 90h-10v172H170V90h-10v213q0 28 4.5 51.5T177 400l64 164q11 28 25 47t48 19h98q33 0 46.5-19t25.5-48l69-163q8-22 12.5-45.5T570 303ZM170 272h390v31q0 27-4 50t-12 43l-69 163q-11 26-23 43.5T412 620h-98q-30 0-42-17t-22-43l-64-164q-7-20-11.5-43t-4.5-50Z" transform="matrix(1 0 0 -1 0 1000)"/><path fill="url(#bungee-spice-c)" d="M273 36q0-36-36-36H90Q54 0 54 36v264q0 30 9.5 69T93 460l87 227q11 33 51 33h269q39 0 50-33l87-227q20-52 29.5-91t9.5-69V36q0-36-36-36H489q-39 0-39 36v140H273Zm57 474-47-152h157l-47 152q-7 17-19 17h-25q-12 0-19-17" transform="matrix(1 0 0 -1 730 1000)"/><path fill="url(#bungee-spice-d)" d="M570 90h-10v172H170V90h-10v213q0 28 4.5 51.5T177 400l64 164q11 28 25 47t48 19h98q33 0 46.5-19t25.5-48l69-163q8-22 12.5-45.5T570 303ZM170 272h390v31q0 27-4 50t-12 43l-69 163q-11 26-23 43.5T412 620h-98q-30 0-42-17t-22-43l-64-164q-7-20-11.5-43t-4.5-50Z" transform="matrix(1 0 0 -1 730 1000)"/></svg>