<svg xmlns="http://www.w3.org/2000/svg" height="100" viewBox="-360 -320 2724 2640"><defs><linearGradient id="honk-a" x1="0" x2="0" y1="0" y2="1000" gradientUnits="userSpaceOnUse" spreadMethod="pad"><stop offset="0" stop-color="rgb(0 0 0 / 1)"/><stop offset="1" stop-color="rgb(0 0 0 / 1)"/></linearGradient><linearGradient id="honk-b" x1="0" x2="0" y1="0" y2="1000" gradientUnits="userSpaceOnUse" spreadMethod="pad"><stop offset="0" stop-color="rgb(255 70 175 / 1)"/><stop offset=".2" stop-color="rgb(255 60 175 / 1)"/><stop offset=".4" stop-color="rgb(255 117 95 / 1)"/><stop offset=".6" stop-color="rgb(255 199 83 / 1)"/><stop offset=".8" stop-color="rgb(255 255 120 / 1)"/><stop offset="1" stop-color="rgb(255 255 178 / 1)"/></linearGradient><linearGradient id="honk-c" x1="0" x2="0" y1="0" y2="1000" gradientUnits="userSpaceOnUse" spreadMethod="pad"><stop offset="0" stop-color="rgb(0 0 0 / 1)"/><stop offset="1" stop-color="rgb(0 0 0 / 1)"/></linearGradient><linearGradient id="honk-d" x1="0" x2="0" y1="0" y2="1000" gradientUnits="userSpaceOnUse" spreadMethod="pad"><stop offset="0" stop-color="rgb(0 0 0 / 1)"/><stop offset="1" stop-color="rgb(0 0 0 / 1)"/></linearGradient><linearGradient id="honk-e" x1="0" x2="0" y1="0" y2="1000" gradientUnits="userSpaceOnUse" spreadMethod="pad"><stop offset="0" stop-color="rgb(255 70 175 / 1)"/><stop offset=".2" stop-color="rgb(255 60 175 / 1)"/><stop offset=".4" stop-color="rgb(255 117 95 / 1)"/><stop offset=".6" stop-color="rgb(255 199 83 / 1)"/><stop offset=".8" stop-color="rgb(255 255 120 / 1)"/><stop offset="1" stop-color="rgb(255 255 178 / 1)"/></linearGradient><linearGradient id="honk-f" x1="0" x2="0" y1="0" y2="1000" gradientUnits="userSpaceOnUse" spreadMethod="pad"><stop offset="0" stop-color="rgb(0 0 0 / 1)"/><stop offset="1" stop-color="rgb(0 0 0 / 1)"/></linearGradient></defs><path fill="url(#honk-a)" d="M246-278H-40V24h1140v-134l-23-9q-23-9-61-24t-83.5-33l-91-36Q796-230 758-245t-61.5-24l-23.5-9zm0 0H-40V24h1140v-134l-23-9q-23-9-61-24t-83.5-33l-91-36Q796-230 758-245t-61.5-24l-23.5-9z" transform="matrix(1 0 0 -1 0 2000)"/><path fill="url(#honk-b)" d="M-6 1138h1064V40H-6Z" transform="matrix(1 0 0 -1 0 2000)"/><path fill="url(#honk-c)" d="M-40 558h80V80h504V0H-40zm1140 0V0H516v80h504v478ZM-40 614v558h584v-80H202q-3 0-20-15t-41-38-47-46.5T55.5 952 40 932V614Zm1140 0h-80v318q0 3-15.5 20T966 992.5t-47 46.5-41 38-20 15H516v80h584zm-608-65v248q0 6 1 7t7 1h64q6 0 7-1t1-7V549q0-6-1-7t-7-1h-64q-6 0-7 1t-1 7m76-193q4 0 5.5-.5t2-2 .5-5.5V75.5q0-1.5-1-2.5t-2.5-1h-73q-1.5 0-2.5 1t-1 2.5V348q0 4 .5 5.5t2 2 5.5.5zm532 20h-80v420h80Zm-1140 0v420h80V376Z" transform="matrix(1 0 0 -1 0 2000)"/><path fill="url(#honk-d)" d="M228-278H-40V24h1064v-134l-43-9q-43-9-114-24t-156-33l-170-36q-85-18-156-33t-114-24zm0 0H-40V24h1064v-134l-43-9q-43-9-114-24t-156-33l-170-36q-85-18-156-33t-114-24z" transform="matrix(1 0 0 -1 1060 2000)"/><path fill="url(#honk-e)" d="M-6 938H995V40H-6Z" transform="matrix(1 0 0 -1 1060 2000)"/><path fill="url(#honk-f)" d="M-40 558h80V240q0-3 15.5-20T94 179.5t47-46.5 41-38 20-15h302V0H-40zm0-88v498h544v-80H40V470Zm1064-60h-80v318q0 3-15.5 20T890 788.5 843 835t-41 38-20 15H480v80h544zm0 88V0H480v80h464v418Zm0-242h-80v460h80Zm-654 58q-6 0-7 1t-1 7v64q0 6 1 7t7 1h248q6 0 7-1t1-7v-64q0-6-1-7t-7-1zM2 628h38v-28l40.5 6q40.5 6 100 14.5l119 17q59.5 8.5 100 14.5l40.5 6 .5-4q.5-4 2-12.5T446 620t3.5-22 2-13.5l.5-4.5-41.5-6q-41.5-6-103-15l-123-18q-61.5-9-103-15L40 520v-38H2Z" transform="matrix(1 0 0 -1 1060 2000)"/></svg>