<svg xmlns="http://www.w3.org/2000/svg" height="100" viewBox="-147 -160 1693 1320"><defs><linearGradient id="kalnia-glaze-a" x1="20" x2="675.113" y1="0" y2="720.624" gradientUnits="userSpaceOnUse" spreadMethod="pad"><stop offset="0" stop-color="rgb(0 0 0 / 0.00392156862745098)"/><stop offset=".2" stop-color="rgb(0 0 0 / 0.00784313725490196)"/><stop offset=".4" stop-color="rgb(102 53 122 / 1)"/><stop offset="1.6" stop-color="rgb(0 0 0 / 0.00784313725490196)"/><stop offset=".8" stop-color="rgb(59 23 31 / 1)"/></linearGradient><linearGradient id="kalnia-glaze-b" x1="20" x2="675.113" y1="0" y2="720.624" gradientUnits="userSpaceOnUse" spreadMethod="pad"><stop offset="0" stop-color="rgb(183 64 175 / 1)"/><stop offset=".2" stop-color="rgb(255 48 111 / 0.5908203125)"/><stop offset=".4" stop-color="rgb(167 98 255 / 1)"/><stop offset="1.6" stop-color="rgb(154 139 199 / 1)"/><stop offset=".8" stop-color="rgb(255 41 242 / 0.5908203125)"/></linearGradient><linearGradient id="kalnia-glaze-c" x1="70" x2="500.35" y1="-15" y2="583.748" gradientUnits="userSpaceOnUse" spreadMethod="pad"><stop offset="0" stop-color="rgb(0 0 0 / 0.00392156862745098)"/><stop offset=".2" stop-color="rgb(0 0 0 / 0.00784313725490196)"/><stop offset=".4" stop-color="rgb(102 53 122 / 1)"/><stop offset="1.6" stop-color="rgb(0 0 0 / 0.00784313725490196)"/><stop offset=".8" stop-color="rgb(59 23 31 / 1)"/></linearGradient><linearGradient id="kalnia-glaze-d" x1="70" x2="500.35" y1="-15" y2="583.748" gradientUnits="userSpaceOnUse" spreadMethod="pad"><stop offset="0" stop-color="rgb(183 64 175 / 1)"/><stop offset=".2" stop-color="rgb(255 48 111 / 0.5908203125)"/><stop offset=".4" stop-color="rgb(167 98 255 / 1)"/><stop offset="1.6" stop-color="rgb(154 139 199 / 1)"/><stop offset=".8" stop-color="rgb(255 41 242 / 0.5908203125)"/></linearGradient></defs><path fill="url(#kalnia-glaze-a)" d="M13 0v10l62 13 268 685h76L683 23l61-13V0H489v8l71 14-227 593h-11L198 285q-18-45-27.5-86t-9.5-72q0-34 12.5-61T214 24.5 287 10V0Zm172 288v10l279 11v-21ZM576 13h99L412 696h-61l-29-69h18ZM84 12h128q-32 14-48.5 43T147 125q0 15 3 33t9 39Z" transform="matrix(1 0 0 -1 0 1000)"/><path fill="url(#kalnia-glaze-b)" d="M576 13h99L412 696h-61l-29-69h18ZM84 12h128q-32 14-48.5 43T147 125q0 15 3 33t9 39Z" transform="matrix(1 0 0 -1 0 1000)"/><path fill="url(#kalnia-glaze-c)" d="M315 515q58 0 99.5-13.5T483 460t39-70.5T534 289V35q0-15 6.5-22T558 6q12 0 27.5 7T616 31V20Q604 9 587.5 1T553-11t-35-4q-44 0-69 23.5T424 85v55l-8 6q-19-38-45.5-68t-59-50.5T245-4t-68-11q-37 0-67 12.5t-48 37T44 95q0 85 97 129.5T424 269q0 85-13 134.5T366 475t-88 22q-37 0-65.5-6.5t-44-15.5-15.5-16q0-5 9.5-10.5T197 433q46-18 46-51 0-30-26-45.5T154 321q-36 0-61.5 16T67 383q0 24 20.5 47.5t55 42.5 79 30.5T315 515m109-258q-95 0-157-20.5T175 181t-30-78q0-26 10.5-42.5T184 36t41-8q25 0 53.5 9.5T335 67t51.5 50.5T424 190ZM177-3q37 0 73.5 12.5T317 44q-24-13-49-20t-48-7q-29 0-49 11t-29.5 31-9.5 44q0 57 47 96.5T308 253q-119-11-185.5-52.5T56 95q0-30 14.5-52t42-34T177-3m155 506q23-6 41-18t30-32q17-26 25.5-66.5T437 289V77q0-25 10.5-41t27-24.5T507 1q8-2 16-2t15 1q-9 5-12.5 13.5T522 37v252q0 64-17.5 108T452 467q-18 12-38.5 19.5t-41.5 11-40 5.5M154 334q35 0 55.5 13.5T230 382q0 19-15.5 28.5T181 427q-10 3-20 8t-13 11q-7 8-4 15-19-10-33.5-23.5t-23-27.5-8.5-27q0-22 20.5-35.5T154 334" transform="matrix(1 0 0 -1 757 1000)"/><path fill="url(#kalnia-glaze-d)" d="M177-3q37 0 73.5 12.5T317 44q-24-13-49-20t-48-7q-29 0-49 11t-29.5 31-9.5 44q0 57 47 96.5T308 253q-119-11-185.5-52.5T56 95q0-30 14.5-52t42-34T177-3m155 506q23-6 41-18t30-32q17-26 25.5-66.5T437 289V77q0-25 10.5-41t27-24.5T507 1q8-2 16-2t15 1q-9 5-12.5 13.5T522 37v252q0 64-17.5 108T452 467q-18 12-38.5 19.5t-41.5 11-40 5.5M154 334q35 0 55.5 13.5T230 382q0 19-15.5 28.5T181 427q-10 3-20 8t-13 11q-7 8-4 15-19-10-33.5-23.5t-23-27.5-8.5-27q0-22 20.5-35.5T154 334" transform="matrix(1 0 0 -1 757 1000)"/></svg>