<svg xmlns="http://www.w3.org/2000/svg" height="100" viewBox="-117 -160 1359 1320"><defs><linearGradient id="nabla-a" x1="0" x2="99.82" y1="375" y2="547.104" gradientUnits="userSpaceOnUse" spreadMethod="pad"><stop offset="0" stop-color="rgb(255 145 35 / 1)"/><stop offset="1" stop-color="rgb(255 85 45 / 1)"/></linearGradient><linearGradient id="nabla-b" x1="0" x2="147.561" y1="675" y2="929.415" gradientUnits="userSpaceOnUse" spreadMethod="pad"><stop offset="0" stop-color="rgb(255 145 35 / 1)"/><stop offset="1" stop-color="rgb(255 85 45 / 1)"/></linearGradient><linearGradient id="nabla-c" x1="0" x2="130.201" y1="415" y2="639.484" gradientUnits="userSpaceOnUse" spreadMethod="pad"><stop offset="0" stop-color="rgb(255 145 35 / 1)"/><stop offset="1" stop-color="rgb(255 235 110 / 1)"/></linearGradient><linearGradient id="nabla-d" x1="0" x2="473.062" y1="25" y2="840.624" gradientUnits="userSpaceOnUse" spreadMethod="pad"><stop offset="0" stop-color="rgb(255 85 45 / 1)"/><stop offset=".587" stop-color="rgb(255 145 35 / 1)"/><stop offset=".771" stop-color="rgb(255 250 190 / 1)"/><stop offset="1" stop-color="rgb(255 250 190 / 1)"/></linearGradient><linearGradient id="nabla-e" x1="0" x2="-259.211" y1="-100" y2="351.028" gradientUnits="userSpaceOnUse" spreadMethod="pad"><stop offset="0" stop-color="rgb(255 210 20 / 1)"/><stop offset="1" stop-color="rgb(255 235 110 / 1)"/></linearGradient><linearGradient id="nabla-f" x1="0" x2="60.76" y1="625" y2="729.759" gradientUnits="userSpaceOnUse" spreadMethod="pad"><stop offset="0" stop-color="rgb(255 145 35 / 1)"/><stop offset="1" stop-color="rgb(255 85 45 / 1)"/></linearGradient><linearGradient id="nabla-g" x1="0" x2="36.456" y1="285" y2="347.855" gradientUnits="userSpaceOnUse" spreadMethod="pad"><stop offset="0" stop-color="rgb(255 145 35 / 1)"/><stop offset="1" stop-color="rgb(255 85 45 / 1)"/></linearGradient><linearGradient id="nabla-h" x1="0" x2="60.661" y1="384" y2="490.423" gradientUnits="userSpaceOnUse" spreadMethod="pad"><stop offset="0" stop-color="rgb(255 145 35 / 1)"/><stop offset="1" stop-color="rgb(255 85 45 / 1)"/></linearGradient><linearGradient id="nabla-i" x1="0" x2="104.16" y1="175" y2="354.587" gradientUnits="userSpaceOnUse" spreadMethod="pad"><stop offset="0" stop-color="rgb(255 145 35 / 1)"/><stop offset="1" stop-color="rgb(255 235 110 / 1)"/></linearGradient><linearGradient id="nabla-j" x1="0" x2="234.361" y1="85" y2="489.071" gradientUnits="userSpaceOnUse" spreadMethod="pad"><stop offset="0" stop-color="rgb(255 85 45 / 1)"/><stop offset=".259" stop-color="rgb(255 145 35 / 1)"/><stop offset=".63" stop-color="rgb(255 145 35 / 1)"/><stop offset="1" stop-color="rgb(255 235 110 / 1)"/></linearGradient><linearGradient id="nabla-k" x1="0" x2="130.201" y1="565" y2="789.484" gradientUnits="userSpaceOnUse" spreadMethod="pad"><stop offset="0" stop-color="rgb(255 250 190 / 1)"/><stop offset="1" stop-color="rgb(255 250 190 / 1)"/></linearGradient><linearGradient id="nabla-l" x1="0" x2="43.4" y1="465" y2="539.828" gradientUnits="userSpaceOnUse" spreadMethod="pad"><stop offset="0" stop-color="rgb(255 145 35 / 1)"/><stop offset="1" stop-color="rgb(255 145 35 / 1)"/></linearGradient><linearGradient id="nabla-m" x1="0" x2="-259.211" y1="-100" y2="351.028" gradientUnits="userSpaceOnUse" spreadMethod="pad"><stop offset="0" stop-color="rgb(255 210 20 / 1)"/><stop offset="1" stop-color="rgb(255 235 110 / 1)"/></linearGradient></defs><path fill="rgb(255 210 20 / 1)" d="m217 260 216-125q34-20 60.5-5t26.5 55v640l-87 50V675L217 800v200l-87 50V410q0-27 12-56.5t32-55 43-38.5m216 315V235L217 360v340Zm0 100v200l-87-50V625Zm0-440v340l-87-50V185Zm0 340L217 700l-87-50 216-125Zm61-445q-27-15-61 5L217 260q-23 13-43 38.5t-32 55-12 56.5v640l-87-50V360q0-27 12-56.5t32-55 43-38.5L346 85q35-20 61-5Z"/><path fill="url(#nabla-a)" d="M433 325V125l-87 50v200Z" transform="matrix(1 0 0 -1 0 1000)"/><path fill="url(#nabla-b)" d="M433 765V425l-87 50v340Z" transform="matrix(1 0 0 -1 0 1000)"/><path fill="url(#nabla-c)" d="M433 425 217 300l-87 50 216 125Z" transform="matrix(1 0 0 -1 0 1000)"/><path fill="url(#nabla-d)" d="M494 870q-27 15-61-5L217 740q-23-13-43-38.5t-32-55-12-56.5V-50L43 0v640q0 27 12 56.5t32 55 43 38.5l216 125q35 20 61 5Z" transform="matrix(1 0 0 -1 0 1000)"/><path fill="url(#nabla-e)" d="m217 740 216 125q34 20 60.5 5t26.5-55V175l-87-50v200L217 200V0l-87-50v640q0 27 12 56.5t32 55 43 38.5m216-315v340L217 640V300Z" transform="matrix(1 0 0 -1 0 1000)"/><path fill="rgb(255 255 255 / 1)" d="M433 335q-3 58-4 100t-1 74.5V572q-27 16-56 33t-66.5 39.5T217 700q56-30 95.5-51.5t69-38T438 578v-62.5q0-32.5-1-76T433 335m0-200q-57 30-96.5 51.5t-69 38T211 257q-23 13-42.5 38.5t-31.5 55-12 56.5v114.5q0 59.5 1 138t4 190.5q3-109 4-186t1-136.5V413q0-27 12-56.5t32-55 43-38.5q27-16 56-33t66-39.5 89-55.5"/><path fill="rgb(255 210 20 / 1)" d="m693 510 260-150q34-20 60-5t26 55v480l-86 50V840q0 26-12 56t-32 55.5-43 38.5l-86 50q-35 20-61 5t-26-55V850q0-27 12-56.5t32-55 43-38.5l173-100V460L693 610Zm87 430 173-100V700L780 800Zm173-480v140l-87-50V410Zm0 380v100l-87-50V790Zm0-140v140l-87-50V650Zm0 140L780 940l-87-50 173-100Zm0-240L780 700q-23 13-43 38.5t-32 55-12 56.5v140q0 40 26 55l-87-50q-26-15-26-55V800q0-27 12-56.5t32-55 43-38.5l173-100Zm60-245q-26-15-60 5L693 510l-87-50 260-150q35-20 61-5ZM693 510v100l-87-50V460Z"/><path fill="url(#nabla-f)" d="M390 540V400l-87 50v140Z" transform="matrix(1 0 0 -1 563 1000)"/><path fill="url(#nabla-g)" d="M390 160V60l-87 50v100Z" transform="matrix(1 0 0 -1 563 1000)"/><path fill="url(#nabla-h)" d="M390 300V160l-87 50v140Z" transform="matrix(1 0 0 -1 563 1000)"/><path fill="url(#nabla-i)" d="M390 160 217 60l-87 50 173 100Z" transform="matrix(1 0 0 -1 563 1000)"/><path fill="url(#nabla-j)" d="M390 400 217 300q-23-13-43-38.5t-32-55-12-56.5V10q0-40 26-55L69 5Q43 20 43 60v140q0 27 12 56.5t32 55 43 38.5l173 100Z" transform="matrix(1 0 0 -1 563 1000)"/><path fill="url(#nabla-k)" d="M450 645q-26 15-60-5L130 490l-87 50 260 150q35 20 61 5Z" transform="matrix(1 0 0 -1 563 1000)"/><path fill="url(#nabla-l)" d="M130 490V390l-87 50v100Z" transform="matrix(1 0 0 -1 563 1000)"/><path fill="url(#nabla-m)" d="m130 490 260 150q34 20 60 5t26-55V110l-86-50v100q0-26-12-56t-32-55.5T303 10l-86-50q-35-20-61-5t-26 55v140q0 27 12 56.5t32 55 43 38.5l173 100v140L130 390Zm87-430 173 100v140L217 200Z" transform="matrix(1 0 0 -1 563 1000)"/><path fill="rgb(255 255 255 / 1)" d="M953 460q-4 50-4.5 80.5T948 597L774 697q-23 13-42.5 38.5t-31.5 55-12 56.5q0 21 .5 45t4.5 68q4-39 4.5-62.5t.5-44.5q0-27 12-56.5t32-55 43-38.5l173-100q0-26-.5-57t-4.5-86m0 240q-4 50-4.5 80.5T948 837q-33 19-70 41t-98 62q45-24 77-41t55.5-30.5T958 843q0-26-.5-57t-4.5-86m0-340q-68 36-115 62t-82.5 46-67.5 39q0 19 .5 41t4.5 62q4-35 4.5-56.5t.5-40.5q33-19 68-39.5t79.5-47.5T953 360"/></svg>